PathFileType  4	(X/Y/Z) C:\Users\antoi\Documents\MyRepositories\mobilecap\ResultsAnalysis
DataRate	CameraRate	NumFrames	NumMarkers	Units	OrigDataRate	OrigDataStartFrame	OrigNumFrames
100.0	100.0	4	51	mm	100.0	472	1257
Frame#	Time	r_knee			r_shank_antsup			r_ankle			r_calc			r_5meta			r_toe			L_knee			L_shank_antsup			L_ankle			L_calc			L_5meta			L_toe			r_sh2			r_sh3			r_sh4			L_sh2			L_sh3			r_thigh1			r_thigh2			r_thigh3			r_thigh4			r_thigh5			L_thigh1			L_thigh2			L_thigh3			L_thigh4			r.ASIS			r.PSIS			L.ASIS			L.PSIS			C7			R_Shoulder			L_Shoulder			R_Sternum			L_Sternum			R_humerus			R_elbow_med			R_elbow_lat			R_forearm			R_wrist_radius			R_wrist_ulna			L_humerus			L_elbow_med			L_elbow_lat			L_forearm			L_wrist_radius			L_wrist_ulna			R_HJC			L_HJC			R_HJC_reg			L_HJC_reg			
		X1	Y1	Z1	X2	Y2	Z2	X3	Y3	Z3	X4	Y4	Z4	X5	Y5	Z5	X6	Y6	Z6	X7	Y7	Z7	X8	Y8	Z8	X9	Y9	Z9	X10	Y10	Z10	X11	Y11	Z11	X12	Y12	Z12	X13	Y13	Z13	X14	Y14	Z14	X15	Y15	Z15	X16	Y16	Z16	X17	Y17	Z17	X18	Y18	Z18	X19	Y19	Z19	X20	Y20	Z20	X21	Y21	Z21	X22	Y22	Z22	X23	Y23	Z23	X24	Y24	Z24	X25	Y25	Z25	X26	Y26	Z26	X27	Y27	Z27	X28	Y28	Z28	X29	Y29	Z29	X30	Y30	Z30	X31	Y31	Z31	X32	Y32	Z32	X33	Y33	Z33	X34	Y34	Z34	X35	Y35	Z35	X36	Y36	Z36	X37	Y37	Z37	X38	Y38	Z38	X39	Y39	Z39	X40	Y40	Z40	X41	Y41	Z41	X42	Y42	Z42	X43	Y43	Z43	X44	Y44	Z44	X45	Y45	Z45	X46	Y46	Z46	X47	Y47	Z47	X48	Y48	Z48	X49	Y49	Z49	X50	Y50	Z50	X51	Y51	Z51	

472	4.71000000	-241.74916	465.70430	-401.91135	-235.24682	392.56475	-381.66909	-269.87368	89.76127	-421.17807	-336.47748	54.50927	-459.93396	-168.69888	47.06115	-387.13708	-124.61228	69.01505	-440.75925	-256.13783	462.18451	-774.56593	-234.02177	407.75521	-802.54661	-272.29416	100.04242	-865.94123	-335.95704	57.77341	-818.13492	-181.77649	42.91934	-907.87786	-127.43615	65.89528	-858.24300	-240.75263	279.03330	-380.26044	-309.67034	394.84503	-391.59438	-322.25846	279.25404	-393.52676	-322.85103	416.82673	-792.69234	-325.95418	300.75291	-831.44941	-175.64029	774.50553	-409.72272	-169.01200	662.99833	-402.23108	-211.76892	637.61475	-358.08681	-266.40401	771.81606	-339.69190	-265.79132	654.81168	-352.56482	-210.29222	736.96790	-733.05691	-201.10783	602.41265	-760.69694	-327.39646	731.35282	-734.83742	-308.57003	592.67983	-757.36730	-189.91728	914.00643	-415.23699	-371.28476	939.42150	-496.70744	-186.84103	890.73268	-670.34340	-371.35445	925.03102	-603.53128	-322.19124	1376.95651	-495.34902	-247.77556	1322.37272	-346.75884	-245.76814	1360.55942	-664.07942	-185.28611	1320.51718	-480.58332	-183.14676	1327.42146	-523.95690	-243.44861	1097.30016	-251.66489	-273.84542	984.61634	-299.34485	-257.98022	1017.69638	-226.50198	-151.78257	1048.99145	-261.25576	-53.30334	1076.32700	-310.87169	-41.50929	1033.71841	-308.44306	-212.53347	1238.27029	-729.62294	-271.79572	1019.60307	-710.90486	-261.26229	1037.06691	-781.43528	-148.38616	1053.67612	-755.20109	-44.74994	1060.13723	-696.05806	-33.98741	1026.04187	-706.93611	-261.97556	841.86084	-438.67818	-254.42830	825.34620	-638.14593	-258.81537	839.85980	-441.65313	-258.92455	817.28628	-609.22092	
473	4.72000000	-241.51588	465.56552	-402.17109	-234.88355	392.68813	-381.68104	-269.83428	89.78801	-421.20780	-336.45624	54.53711	-459.98238	-168.64286	47.01690	-387.14361	-124.56688	68.87022	-440.75969	-256.34652	462.13101	-774.47105	-234.07425	407.70994	-802.57738	-272.29459	100.00479	-865.93337	-335.97079	57.73901	-818.15388	-181.78379	42.89756	-907.88853	-127.44395	65.89244	-858.27698	-240.52457	278.89671	-380.41905	-309.39568	394.78158	-391.92099	-322.02398	279.38834	-393.56959	-322.89237	416.78189	-792.71106	-326.07985	300.62025	-831.22607	-175.58934	774.56586	-409.93196	-168.84572	663.04550	-402.33532	-211.37688	637.59579	-358.26567	-266.24361	771.67178	-339.72207	-265.40144	654.87444	-352.37363	-210.82633	737.11299	-733.34371	-201.60130	602.55417	-761.08672	-327.91739	731.27964	-734.52728	-308.99845	592.53180	-757.05296	-190.06648	913.98262	-415.46782	-371.34718	939.40959	-496.63926	-187.07552	890.59809	-670.46260	-371.51521	925.00190	-603.51412	-322.00007	1377.00826	-495.75741	-247.56767	1322.51955	-346.92888	-245.94918	1360.15866	-664.33829	-185.20202	1320.51036	-480.82555	-183.07889	1327.30461	-524.46127	-243.70893	1097.45644	-251.78967	-274.20420	984.74546	-299.55873	-258.45451	1017.83992	-226.62839	-152.04646	1048.86965	-261.20502	-53.47423	1075.91239	-310.80973	-41.73885	1033.25146	-308.27762	-212.66205	1237.96520	-729.80312	-271.43751	1019.16665	-710.91135	-261.20903	1036.56992	-781.45839	-148.25949	1053.26473	-755.54889	-44.51341	1059.80537	-696.71955	-33.73203	1025.63175	-707.35184	-262.07103	841.84189	-438.73207	-254.68445	825.25536	-638.19982	-258.90294	839.82423	-441.79593	-259.16640	817.24382	-609.29478	
474	4.73000000	-241.08851	465.61807	-402.14941	-234.51037	392.70187	-381.78719	-269.78621	89.84373	-421.18842	-336.44826	54.54634	-459.99812	-168.58509	47.02932	-387.12500	-124.53746	68.76747	-440.73885	-256.54331	462.10277	-774.41342	-234.10382	407.66759	-802.63370	-272.31430	99.96727	-865.95334	-335.98816	57.71901	-818.21567	-181.78987	42.87011	-907.90560	-127.46126	65.89577	-858.31370	-240.31191	278.97051	-380.42008	-309.08006	394.75266	-392.18719	-321.63819	279.53795	-393.38817	-322.92365	416.73558	-792.74649	-326.11740	300.57339	-831.17325	-175.56019	774.61064	-410.03044	-168.70885	663.15271	-402.41045	-211.05671	637.57923	-358.34136	-266.11390	771.57130	-339.74804	-265.21000	654.79381	-352.30785	-211.38465	737.22315	-733.58025	-202.10647	602.68090	-761.47543	-328.40341	731.25115	-734.31821	-309.54598	592.35805	-756.61947	-190.19337	914.09488	-415.49567	-371.44528	939.44939	-496.58828	-187.31125	890.44868	-670.63797	-371.67566	924.99383	-603.48430	-321.82085	1377.00323	-496.02637	-247.35104	1322.63689	-347.08791	-246.08744	1359.80136	-664.58659	-185.01119	1320.47161	-481.05181	-182.96400	1327.18278	-524.95048	-243.95345	1097.56586	-251.91390	-274.58594	984.84550	-299.75247	-258.90551	1017.98269	-226.71053	-152.39374	1048.68563	-261.24222	-53.57176	1075.45539	-310.76372	-41.97452	1032.66749	-308.21205	-212.83167	1237.61913	-729.97731	-271.00436	1018.58514	-710.88338	-261.12260	1036.03405	-781.45411	-148.08955	1052.79384	-755.70476	-44.27426	1059.46797	-697.25611	-33.44708	1025.30837	-707.82918	-262.17402	841.92709	-438.71097	-254.92233	825.17068	-638.16935	-259.01423	839.79520	-441.76712	-259.37545	817.13057	-609.36754	
475	4.74000000	-240.55534	465.76660	-401.89040	-234.18518	392.59873	-381.94327	-269.70979	89.94759	-421.11613	-336.44778	54.53316	-460.01084	-168.58346	47.02643	-387.16930	-124.51289	68.74104	-440.78278	-256.71890	462.13118	-774.46338	-234.12247	407.63339	-802.71384	-272.34562	99.93098	-865.98903	-335.98576	57.71658	-818.27872	-181.79605	42.83939	-907.92294	-127.46681	65.88713	-858.35717	-240.10397	279.13017	-380.30872	-308.71424	394.76611	-392.24132	-321.31232	279.64378	-393.21513	-322.93937	416.70974	-792.80657	-326.11351	300.58066	-831.27368	-175.59501	774.66679	-410.07027	-168.58289	663.22270	-402.53501	-210.86984	637.61057	-358.31308	-266.00838	771.51099	-339.71668	-265.13804	654.65858	-352.35227	-211.94410	737.26739	-733.79719	-202.57092	602.77238	-761.84166	-328.95642	731.10282	-733.85237	-310.12531	592.23394	-756.21876	-190.24503	914.12217	-415.42863	-371.56104	939.47281	-496.55120	-187.51538	890.29634	-670.77256	-371.86372	924.99854	-603.45169	-321.62891	1376.99402	-496.25325	-247.12857	1322.75049	-347.28217	-246.18388	1359.51700	-664.88995	-184.75256	1320.41252	-481.26004	-182.83695	1327.08122	-525.29511	-244.18492	1097.65100	-252.05540	-274.93284	984.99436	-299.90135	-259.29370	1018.16075	-226.73986	-152.72586	1048.48951	-261.32804	-53.64536	1074.96346	-310.76338	-42.30659	1031.99417	-308.17135	-213.03033	1237.19406	-730.23536	-270.62063	1018.01830	-710.77631	-261.04882	1035.48764	-781.41314	-147.91528	1052.33363	-755.83752	-43.93245	1059.14860	-697.73140	-33.14171	1025.03918	-708.50409	-262.28807	841.95578	-438.67779	-255.14951	825.08453	-638.13062	-259.10512	839.70797	-441.66554	-259.58002	816.99644	-609.40294	
